<?xml version="1.0" encoding="UTF-8"?>
<!DOCTYPE svg PUBLIC "-//W3C//DTD SVG 1.1//EN" "http://www.w3.org/Graphics/SVG/1.1/DTD/svg11.dtd">
<!-- Creator: CorelDRAW 2020 (64-Bit Evaluation Version) -->
<svg xmlns="http://www.w3.org/2000/svg" xml:space="preserve" width="108.373mm" height="67.7332mm" version="1.1" style="shape-rendering:geometricPrecision; text-rendering:geometricPrecision; image-rendering:optimizeQuality; fill-rule:evenodd; clip-rule:evenodd"
viewBox="0 0 10837.32 6773.32"
 xmlns:xlink="http://www.w3.org/1999/xlink"
 xmlns:xodm="http://www.corel.com/coreldraw/odm/2003">
 <defs>
  <style type="text/css">
   <![CDATA[
    .fil0 {fill:#009FEA}
   ]]>
  </style>
 </defs>
 <g id="Layer_x0020_1">
  <metadata id="CorelCorpID_0Corel-Layer"/>
  <g id="_3149070615376">
   <circle class="fil0" cx="5460.99" cy="1574.79" r="575.73"/>
   <path class="fil0" d="M5460.99 2319.86c446.58,0 831.94,261.96 1010.9,640.58 -96.85,68.4 -135.2,99.99 -180.32,137.16l-44.94 36.98 -551.72 441.35c-57.44,50.9 -117.47,108.92 -172.5,168.05 -20.91,22.46 -41.49,45.44 -61.39,68.66 -19.9,-23.22 -40.48,-46.2 -61.39,-68.66 -55.03,-59.13 -115.05,-117.14 -172.5,-168.05l-551.72 -441.35 -44.94 -36.98c-45.13,-37.17 -83.48,-68.76 -180.36,-137.19 178.97,-378.6 564.31,-640.55 1010.88,-640.55z"/>
   <path class="fil0" d="M5579.52 4000.78c75.28,-94.99 170.26,-191.7 255.13,-266.92l543.45 -434.74c101.06,-80.86 102.95,-93.29 431.64,-314.51 -8.23,109.17 -29.69,236.43 -47.97,345.39 -8.38,49.96 -12.97,122.79 -41.13,157.32l-526.3 472.17c-96.92,85.89 -207.03,199.8 -285.92,307.2 -25.18,34.27 -55.6,83.89 -78.88,127.27 -23.12,43.12 -39.26,92.43 -56.74,141.56 -15.71,44.16 -22.19,120.76 -49.66,149l-143.62 78.97 0 -762.71zm-237 0c-75.28,-94.99 -170.26,-191.7 -255.13,-266.92l-543.45 -434.74c-101.06,-80.86 -102.95,-93.29 -431.64,-314.51 8.23,109.17 29.69,236.43 47.97,345.39 8.38,49.96 12.97,122.79 41.13,157.32l526.3 472.17c96.92,85.89 207.03,199.8 285.92,307.2 25.18,34.27 55.6,83.89 78.88,127.27 23.12,43.12 39.26,92.43 56.74,141.56 15.71,44.16 22.19,120.76 49.66,149l143.62 78.97 0 -762.71z"/>
   <path class="fil0" d="M4400.48 5542.1c51.98,11.59 728.86,9.9 760.25,-1.14 14.14,-11.84 9.17,-113.56 9.18,-130.96 0.1,-105.37 5.34,-314.01 -8.84,-398.87 -48.03,-287.57 -99.5,-376.7 -248.06,-574.01 -40.66,-54 -42.75,-38.93 -68.53,-67.18 -12.43,-13.61 -17.21,-24.67 -29.53,-38.07l-248.61 -225.45c-14.11,-11.37 -24.83,-18.25 -38.25,-30.17 -15.8,-14.03 -21.03,-23.86 -37.03,-38.37l-143.23 -127.89c-37.63,-39.66 -95.95,-94.61 -140.98,-130.36 -199.82,-158.66 -373.58,67.32 -236.37,244.81l381.62 439.66c23.69,29.94 43.65,54.35 25.73,96.95 -61.76,5.41 -121.12,-93 -164.8,-135.62 -22.21,-21.67 -31.91,-23.51 -53.33,-47.73 -80.6,-91.13 -226.43,-233.63 -288.5,-321.28 -170.48,-240.77 76.43,-424.34 76.47,-424.39 17.2,-29.49 -25.67,-298.53 -31.07,-355.84 -9.4,-99.67 -11.04,-291.59 -45.72,-370.31 -37.25,-84.56 -143.77,-182.89 -241.82,-92.76 -65.75,60.43 -52.03,247.44 -59.13,357.33 -16.3,252.65 -33.88,521.42 -39.17,774.81 -3.96,189.75 63.63,393.17 181.8,531.9l245.64 270.94c65.79,71.96 135.33,138.2 203.93,210.95l145.48 159.69c154.98,188.78 43.7,303.52 92.87,423.36z"/>
   <path class="fil0" d="M6553.18 5542.1c-51.98,11.59 -728.86,9.9 -760.25,-1.14 -14.14,-11.84 -9.17,-113.56 -9.18,-130.96 -0.1,-105.37 -5.34,-314.01 8.84,-398.87 48.03,-287.57 99.5,-376.7 248.06,-574.01 40.66,-54 42.75,-38.93 68.53,-67.18 12.43,-13.61 17.21,-24.67 29.53,-38.07l248.61 -225.45c14.11,-11.37 24.83,-18.25 38.25,-30.17 15.8,-14.03 21.03,-23.86 37.03,-38.37l143.23 -127.89c37.63,-39.66 95.95,-94.61 140.98,-130.36 199.82,-158.66 373.58,67.32 236.37,244.81l-381.62 439.66c-23.69,29.94 -43.65,54.35 -25.73,96.95 61.76,5.41 121.12,-93 164.8,-135.62 22.21,-21.67 31.91,-23.51 53.33,-47.73 80.6,-91.13 226.43,-233.63 288.5,-321.28 170.48,-240.77 -76.43,-424.34 -76.47,-424.39 -17.2,-29.49 25.67,-298.53 31.07,-355.84 9.4,-99.67 11.04,-291.59 45.72,-370.31 37.25,-84.56 143.77,-182.89 241.82,-92.76 65.75,60.43 52.03,247.44 59.13,357.33 16.3,252.65 33.88,521.42 39.17,774.81 3.96,189.75 -63.63,393.17 -181.8,531.9l-245.64 270.94c-65.79,71.96 -135.33,138.2 -203.93,210.95l-145.48 159.69c-154.98,188.78 -43.7,303.52 -92.87,423.36z"/>
  </g>
 </g>
</svg>
