<?xml version="1.0" encoding="UTF-8"?>
<!DOCTYPE svg PUBLIC "-//W3C//DTD SVG 1.1//EN" "http://www.w3.org/Graphics/SVG/1.1/DTD/svg11.dtd">
<!-- Creator: CorelDRAW 2020 (64-Bit Evaluation Version) -->
<svg xmlns="http://www.w3.org/2000/svg" xml:space="preserve" width="108.373mm" height="67.7332mm" version="1.1" style="shape-rendering:geometricPrecision; text-rendering:geometricPrecision; image-rendering:optimizeQuality; fill-rule:evenodd; clip-rule:evenodd"
viewBox="0 0 10837.32 6773.32"
 xmlns:xlink="http://www.w3.org/1999/xlink"
 xmlns:xodm="http://www.corel.com/coreldraw/odm/2003">
 <defs>
  <style type="text/css">
   <![CDATA[
    .fil0 {fill:white}
   ]]>
  </style>
 </defs>
 <g id="Layer_x0020_1">
  <metadata id="CorelCorpID_0Corel-Layer"/>
  <g id="_3149156827632">
   <circle class="fil0" cx="5451.81" cy="1204.95" r="725.65"/>
   <path class="fil0" d="M5451.81 2144.03c562.86,0 1048.57,330.18 1274.13,807.38 -122.07,86.22 -170.41,126.03 -227.28,172.88l-56.64 46.61 -695.38 556.27c-72.4,64.16 -148.06,137.29 -217.42,211.81 -26.36,28.31 -52.29,57.27 -77.38,86.54 -25.08,-29.27 -51.02,-58.23 -77.37,-86.54 -69.36,-74.52 -145.01,-147.64 -217.42,-211.81l-695.38 -556.27 -56.64 -46.61c-56.89,-46.85 -105.22,-86.66 -227.33,-172.91 225.57,-477.19 711.25,-807.35 1274.11,-807.35z"/>
   <path class="fil0" d="M5601.2 4262.65c94.88,-119.72 214.6,-241.62 321.56,-336.42l684.96 -547.95c127.38,-101.91 129.76,-117.58 544.04,-396.4 -10.37,137.6 -37.42,297.99 -60.46,435.33 -10.56,62.96 -16.35,154.76 -51.84,198.28l-663.34 595.12c-122.16,108.25 -260.94,251.83 -360.38,387.19 -31.73,43.2 -70.07,105.74 -99.42,160.41 -29.14,54.35 -49.48,116.5 -71.51,178.42 -19.8,55.66 -27.97,152.21 -62.59,187.8l-181.02 99.54 0 -961.32zm-298.71 0c-94.88,-119.72 -214.6,-241.62 -321.57,-336.42l-684.96 -547.95c-127.37,-101.91 -129.75,-117.58 -544.03,-396.4 10.37,137.6 37.42,297.99 60.46,435.33 10.56,62.96 16.35,154.76 51.84,198.28l663.34 595.12c122.16,108.25 260.94,251.83 360.37,387.19 31.74,43.2 70.08,105.74 99.42,160.41 29.14,54.35 49.49,116.5 71.52,178.42 19.8,55.66 27.97,152.21 62.59,187.8l181.02 99.54 0 -961.32z"/>
   <path class="fil0" d="M4115.15 6205.32c65.51,14.61 918.65,12.48 958.21,-1.44 17.82,-14.92 11.56,-143.13 11.57,-165.06 0.13,-132.81 6.73,-395.77 -11.14,-502.73 -60.54,-362.45 -125.41,-474.79 -312.65,-723.48 -51.25,-68.06 -53.89,-49.07 -86.38,-84.67 -15.66,-17.16 -21.69,-31.1 -37.22,-47.99l-313.34 -284.15c-17.79,-14.33 -31.3,-23 -48.21,-38.03 -19.92,-17.68 -26.51,-30.07 -46.68,-48.36l-180.52 -161.19c-47.43,-49.99 -120.94,-119.25 -177.69,-164.3 -251.85,-199.98 -470.86,84.85 -297.92,308.55l480.99 554.15c29.86,37.73 55.02,68.5 32.43,122.19 -77.84,6.82 -152.66,-117.21 -207.71,-170.93 -28,-27.32 -40.22,-29.63 -67.22,-60.16 -101.59,-114.86 -285.39,-294.47 -363.62,-404.94 -214.87,-303.46 96.33,-534.84 96.38,-534.9 21.68,-37.17 -32.35,-376.26 -39.16,-448.5 -11.85,-125.62 -13.92,-367.51 -57.63,-466.73 -46.95,-106.58 -181.2,-230.52 -304.78,-116.92 -82.88,76.17 -65.58,311.88 -74.53,450.38 -20.55,318.44 -42.7,657.19 -49.37,976.56 -4.99,239.16 80.2,495.55 229.14,670.41l309.6 341.49c82.92,90.7 170.57,174.18 257.03,265.88l183.37 201.27c195.33,237.94 55.07,382.55 117.05,533.6z"/>
   <path class="fil0" d="M6828.39 6205.32c-65.51,14.61 -918.65,12.48 -958.21,-1.44 -17.82,-14.92 -11.56,-143.13 -11.57,-165.06 -0.13,-132.81 -6.73,-395.77 11.14,-502.73 60.54,-362.45 125.41,-474.79 312.66,-723.48 51.24,-68.06 53.88,-49.07 86.37,-84.67 15.67,-17.16 21.69,-31.1 37.22,-47.99l313.35 -284.15c17.78,-14.33 31.29,-23 48.21,-38.03 19.91,-17.68 26.5,-30.07 46.67,-48.36l180.52 -161.19c47.43,-49.99 120.94,-119.25 177.69,-164.3 251.86,-199.98 470.86,84.85 297.92,308.55l-480.99 554.15c-29.86,37.73 -55.01,68.5 -32.43,122.19 77.84,6.82 152.66,-117.21 207.71,-170.93 28,-27.32 40.22,-29.63 67.22,-60.16 101.59,-114.86 285.39,-294.47 363.62,-404.94 214.88,-303.46 -96.33,-534.84 -96.38,-534.9 -21.68,-37.17 32.36,-376.26 39.16,-448.5 11.85,-125.62 13.92,-367.51 57.63,-466.73 46.95,-106.58 181.2,-230.52 304.79,-116.92 82.87,76.17 65.57,311.88 74.52,450.38 20.55,318.44 42.71,657.19 49.37,976.56 4.99,239.16 -80.2,495.55 -229.14,670.41l-309.6 341.49c-82.92,90.7 -170.57,174.18 -257.03,265.88l-183.36 201.27c-195.34,237.94 -55.08,382.55 -117.06,533.6z"/>
  </g>
 </g>
</svg>
