<?xml version="1.0" encoding="UTF-8"?>
<!DOCTYPE svg PUBLIC "-//W3C//DTD SVG 1.1//EN" "http://www.w3.org/Graphics/SVG/1.1/DTD/svg11.dtd">
<!-- Creator: CorelDRAW 2020 (64-Bit Evaluation Version) -->
<svg xmlns="http://www.w3.org/2000/svg" xml:space="preserve" width="108.373mm" height="67.7332mm" version="1.1" style="shape-rendering:geometricPrecision; text-rendering:geometricPrecision; image-rendering:optimizeQuality; fill-rule:evenodd; clip-rule:evenodd"
viewBox="0 0 10837.32 6773.32"
 xmlns:xlink="http://www.w3.org/1999/xlink"
 xmlns:xodm="http://www.corel.com/coreldraw/odm/2003">
 <defs>
  <style type="text/css">
   <![CDATA[
    .fil1 {fill:#009FEA}
    .fil0 {fill:white}
   ]]>
  </style>
 </defs>
 <g id="Layer_x0020_1">
  <metadata id="CorelCorpID_0Corel-Layer"/>
  <circle class="fil0" cx="5446.55" cy="3710.13" r="5255.31"/>
  <g id="_3149060078944">
   <circle class="fil1" cx="5446.5" cy="635.63" r="918.48"/>
   <path class="fil1" d="M5446.5 1824.27c712.44,0 1327.22,417.91 1612.72,1021.93 -154.51,109.12 -215.69,159.52 -287.67,218.82l-71.69 58.99 -880.18 704.1c-91.63,81.21 -187.4,173.77 -275.19,268.1 -33.36,35.83 -66.19,72.49 -97.94,109.53 -31.75,-37.04 -64.58,-73.7 -97.94,-109.53 -87.79,-94.33 -183.54,-186.88 -275.19,-268.1l-880.18 -704.1 -71.69 -58.99c-72,-59.3 -133.18,-109.7 -287.74,-218.86 285.52,-604 900.26,-1021.89 1612.69,-1021.89z"/>
   <path class="fil1" d="M5635.6 4505.89c120.09,-151.54 271.62,-305.82 407.01,-425.83l866.98 -693.55c161.23,-129 164.24,-148.83 688.61,-501.75 -13.13,174.17 -47.36,377.19 -76.53,551.01 -13.36,79.71 -20.69,195.89 -65.61,250.98l-839.62 753.27c-154.62,137.02 -330.28,318.75 -456.14,490.08 -40.17,54.68 -88.7,133.84 -125.84,203.04 -36.88,68.79 -62.63,147.46 -90.52,225.84 -25.06,70.45 -35.4,192.65 -79.22,237.7l-229.12 125.98 0 -1216.77zm-378.1 0c-120.09,-151.54 -271.62,-305.82 -407.01,-425.83l-866.99 -693.55c-161.22,-129 -164.24,-148.83 -688.6,-501.75 13.12,174.17 47.36,377.19 76.52,551.01 13.37,79.71 20.69,195.89 65.62,250.98l839.62 753.27c154.62,137.02 330.28,318.75 456.14,490.08 40.17,54.68 88.7,133.84 125.84,203.04 36.88,68.79 62.63,147.46 90.52,225.84 25.06,70.45 35.4,192.65 79.22,237.7l229.12 125.98 0 -1216.77z"/>
   <path class="fil1" d="M3754.64 6964.8c82.92,18.49 1162.77,15.8 1212.85,-1.81 22.56,-18.89 14.63,-181.17 14.64,-208.93 0.16,-168.1 8.52,-500.95 -14.1,-636.33 -76.62,-458.77 -158.74,-600.96 -395.74,-915.73 -64.86,-86.15 -68.2,-62.11 -109.33,-107.18 -19.83,-21.71 -27.45,-39.35 -47.11,-60.73l-396.61 -359.67c-22.51,-18.14 -39.61,-29.11 -61.02,-48.13 -25.21,-22.38 -33.55,-38.07 -59.08,-61.21l-228.5 -204.03c-60.03,-63.27 -153.07,-150.93 -224.91,-207.97 -318.77,-253.11 -595.98,107.4 -377.08,390.56l608.81 701.4c37.79,47.76 69.63,86.7 41.04,154.67 -98.52,8.63 -193.22,-148.37 -262.91,-216.36 -35.43,-34.57 -50.9,-37.51 -85.08,-76.15 -128.58,-145.38 -361.23,-372.72 -460.25,-512.55 -271.97,-384.1 121.93,-676.96 122,-677.04 27.44,-47.04 -40.96,-476.25 -49.57,-567.68 -15,-159.01 -17.61,-465.18 -72.94,-590.77 -59.43,-134.9 -229.36,-291.77 -385.78,-147.98 -104.89,96.41 -83.01,394.75 -94.33,570.06 -26.01,403.06 -54.05,831.84 -62.49,1236.08 -6.32,302.71 101.51,627.23 290.03,848.55l391.88 432.24c104.95,114.8 215.89,220.48 325.33,336.54l232.09 254.76c247.24,301.16 69.72,484.21 148.16,675.39z"/>
   <path class="fil1" d="M7188.9 6964.8c-82.92,18.49 -1162.77,15.8 -1212.84,-1.81 -22.56,-18.89 -14.63,-181.17 -14.65,-208.93 -0.16,-168.1 -8.52,-500.95 14.1,-636.33 76.63,-458.77 158.74,-600.96 395.74,-915.73 64.87,-86.15 68.2,-62.11 109.33,-107.18 19.83,-21.71 27.45,-39.35 47.11,-60.73l396.61 -359.67c22.51,-18.14 39.62,-29.11 61.02,-48.13 25.21,-22.38 33.55,-38.07 59.08,-61.21l228.5 -204.03c60.03,-63.27 153.07,-150.93 224.91,-207.97 318.78,-253.11 595.98,107.4 377.09,390.56l-608.81 701.4c-37.8,47.76 -69.64,86.7 -41.05,154.67 98.53,8.63 193.23,-148.37 262.91,-216.36 35.43,-34.57 50.91,-37.51 85.08,-76.15 128.58,-145.38 361.23,-372.72 460.25,-512.55 271.97,-384.1 -121.93,-676.96 -121.99,-677.04 -27.44,-47.04 40.95,-476.25 49.56,-567.68 15,-159.01 17.62,-465.18 72.94,-590.77 59.43,-134.9 229.36,-291.77 385.78,-147.98 104.9,96.41 83.01,394.75 94.34,570.06 26,403.06 54.05,831.84 62.49,1236.08 6.31,302.71 -101.52,627.23 -290.04,848.55l-391.87 432.24c-104.96,114.8 -215.9,220.48 -325.34,336.54l-232.09 254.76c-247.24,301.16 -69.71,484.21 -148.16,675.39z"/>
  </g>
 </g>
</svg>
